<?xml version="1.0" encoding="iso-8859-1"?>
<!DOCTYPE svg PUBLIC "-//W3C//DTD SVG 1.0//EN" "http://www.w3.org/TR/2001/REC-SVG-20010904/DTD/svg10.dtd">
<svg version="1.0" id="Layer_1" xmlns="http://www.w3.org/2000/svg" xmlns:xlink="http://www.w3.org/1999/xlink" x="0px" y="0px"
	 width="1024px" height="1024px" viewBox="0 0 1024 1024" enable-background="new 0 0 1024 1024" xml:space="preserve">
<g>
	<path fill="#666" d="M738.142,267.534c0,0-38.065,2.664-75.218-7.984c-37.156-10.647-129.653-40.785-199.079-6.799
		c-9.479,4.642-18.616,9.173-27.374,13.681l-151.34,2.573l-28.59,49.407l105.193-2.031c-14.632,15.005-24.326,32.053-27.573,52.979
		c-8.432,54.368-3.045,60.158-14.04,85.505c-19.428,32.358,8.583,81.42,95.626,34.038c0,0,39.286-36.197,45.771-65.324
		c5.528-24.843,20.618-56.571,79.831-45.588l276.673,235.515c3.769,3.98,30.727,33.916,13.072,57.881
		c-17.115,23.231-46.949,10.235-53.146,7.181l-16.104-11.441c-1.067-0.783-2.18-1.559-3.286-2.332L590.854,545.68
		c-7.977-5.666-19.032-3.794-24.699,4.181c-5.384,7.582-3.959,17.952,3.052,23.824c0.362,0.305,0.742,0.596,1.133,0.875
		l170.409,121.039c14.071,10.349,22.324,21.113,23.911,31.302c1.571,10.066-3.718,17.399-4.311,18.185
		c-20.377,24.101-51.346,1.458-54.75-1.157l-31.243-22.158c-0.076-0.057-0.152-0.115-0.227-0.173
		c-0.136-0.101-0.279-0.186-0.418-0.284l-122.146-86.628c-7.982-5.659-19.038-3.775-24.697,4.206
		c-5.374,7.581-3.943,17.942,3.061,23.81c0.368,0.309,0.748,0.603,1.146,0.882l121.968,86.482
		c1.559,1.177,41.697,31.773,26.06,54.575c-15.78,23.013-50.371,0.511-52.853-1.145l-116.533-83.574
		c-7.949-5.7-19.016-3.876-24.716,4.07c-5.437,7.582-4.033,17.995,3.004,23.891c0.34,0.288,0.699,0.563,1.068,0.826l89.539,64.214
		c1.978,3.754,1.272,10.695-3.155,16.593c-7.134,9.498-22.803,14.097-46.771,2.431c-1.036-11.915-7.093-23.317-17.624-30.764
		c-11.257-7.956-25.061-9.563-37.245-5.634c-4.625-3.302-9.214-6.61-13.758-9.935c1.401-17.146-5.981-34.573-21.049-45.223h-0.001
		c-13.821-9.771-30.862-11.547-45.706-6.344c-3.871-3.166-7.711-6.339-11.516-9.512c3.827-18.934-3.46-39.202-20.246-51.068
		c-13.52-9.559-30.113-11.452-44.723-6.667c-2.688-2.548-5.336-5.101-7.98-7.65c9.514-21.46,2.933-47.35-16.972-61.423
		c-14.376-10.158-32.236-11.693-47.479-5.701c-25.566-28.862-48.401-57.664-68.437-86.139l-25.534,46.139
		c18.571,26.389,38.342,50.347,60.116,73.609l-38.395,54.314c-16.037,22.687-10.644,54.075,12.043,70.115
		c22.687,16.035,54.078,10.646,70.115-12.042l6.242-8.827c-16.037,22.686-10.645,54.078,12.046,70.116
		c22.686,16.038,54.078,10.646,70.113-12.039l3.121-4.417c-16.035,22.688-10.646,54.082,12.044,70.119
		c22.688,16.038,53.77,13.502,69.807-9.187l3.617-4.972c-13.419,18.988-7.403,45.424,11.58,58.844
		c18.982,13.421,45.254,8.908,58.672-10.075l12.869-18.207c41.867,17.269,74.608,1.078,89.377-18.593
		c3.467-4.613,6.079-9.568,7.946-14.645c10.849,6.272,34.986,17.803,59.537,13.241c15.076-2.8,27.89-11.343,37.053-24.707
		c8.191-11.944,10.826-24.107,9.843-35.816c22.121,5.921,48.488,3.865,69.413-21.108c1.621-1.922,15.752-19.524,12.253-45.167
		c-0.114-0.843-0.276-1.676-0.425-2.514c20.592,1.098,43.496-4.981,60.211-27.673c24.82-33.689,8.829-71.765-7.962-93.959
		l23.674-47.039L738.142,267.534z"/>
	<path fill="#666" d="M249.876,208.722l-72.371-34.267c-10.585-5.013-23.336-0.264-28.483,10.606L3.636,492.098
		c-5.147,10.871-0.738,23.742,9.844,28.752l72.372,34.271c10.584,5.01,23.335,0.265,28.481-10.606l145.388-307.039
		C264.865,226.607,260.46,213.734,249.876,208.722z"/>
	<path fill="#666" d="M1018.831,486.832L871.749,180.6c-5.207-10.837-17.984-15.518-28.539-10.449l-72.18,34.671
		c-10.562,5.067-14.894,17.967-9.687,28.805l147.082,306.231c5.203,10.844,17.979,15.519,28.536,10.447l72.182-34.665
		C1019.701,510.569,1024.035,497.675,1018.831,486.832z"/>
</g>
</svg>
